<svg width="180" height="34" viewBox="0 0 180 34" fill="none" xmlns="http://www.w3.org/2000/svg">
<mask id="mask0_1451_999" style="mask-type:luminance" maskUnits="userSpaceOnUse" x="0" y="0" width="35" height="34">
<path d="M34.5246 0H0.574219V34H34.5246V0Z" fill="white"/>
</mask>
<g mask="url(#mask0_1451_999)">
<path fill-rule="evenodd" clip-rule="evenodd" d="M1.72994 5.8005C0.57422 8.07494 0.574219 11.0492 0.574219 16.9978C0.574219 22.9463 0.57422 25.9251 1.72994 28.195C2.74679 30.1913 4.37286 31.8198 6.36625 32.8381C8.63738 33.9955 11.6073 33.9955 17.5472 33.9955C23.487 33.9955 26.4614 33.9955 28.7281 32.8381C30.7215 31.8198 32.3475 30.1913 33.3644 28.195C34.5201 25.9206 34.5201 22.9463 34.5201 16.9978C34.5201 11.0492 34.5201 8.07046 33.3644 5.8005C32.3475 3.8042 30.7215 2.17575 28.7281 1.15741C26.457 8.34465e-07 23.487 0 17.5472 0C11.6073 0 8.6329 8.34465e-07 6.36625 1.15741C4.37286 2.18024 2.75127 3.8042 1.72994 5.8005ZM26.0224 9.16955C26.3181 9.16955 26.6003 9.29067 26.8064 9.49703C27.0124 9.70788 27.1289 9.99498 27.1244 10.2866C27.0707 13.4538 26.9497 15.8762 26.7213 17.7918C26.4973 19.7118 26.1658 21.1339 25.6596 22.2868C25.3192 23.0584 24.9026 23.6955 24.4098 24.2383C23.7468 24.9561 22.9898 25.4764 22.1611 25.9699C21.8072 26.1808 21.4399 26.3916 21.0546 26.6114C20.2304 27.078 19.3255 27.5939 18.2997 28.2802C17.9279 28.5315 17.4441 28.5315 17.0723 28.2802C16.0286 27.5849 15.1148 27.0645 14.2816 26.5935C14.0979 26.4903 13.9143 26.3871 13.7396 26.2839C12.7675 25.7187 11.894 25.1848 11.128 24.4088C10.6173 23.8973 10.1783 23.2783 9.82893 22.5381C9.34962 21.5511 9.0271 20.3533 8.78968 18.8101C8.47164 16.742 8.31037 14.0414 8.25214 10.2866C8.24766 9.99498 8.35965 9.70788 8.56571 9.49703C8.77176 9.29067 9.05845 9.16955 9.3541 9.16955H9.81102C11.2176 9.17403 14.3219 9.03497 17.0051 6.94445C17.4038 6.63491 17.9593 6.63491 18.358 6.94445C21.0412 9.03945 24.1455 9.17403 25.5566 9.16955H26.0224ZM23.5542 21.587C23.8991 20.8737 24.1858 19.8913 24.4009 18.4782C24.6607 16.7869 24.8219 14.4945 24.8936 11.3677C23.2407 11.3184 20.3962 10.9999 17.686 9.17404C14.9759 10.9954 12.1314 11.3139 10.4829 11.3677C10.5412 13.9517 10.6576 15.957 10.8458 17.5361C11.0563 19.3305 11.3609 20.5462 11.7372 21.4031C11.9881 21.9728 12.2613 22.381 12.5928 22.7399C13.0318 23.2244 13.5917 23.6237 14.3488 24.0768C14.6623 24.2652 15.0118 24.4626 15.388 24.6779C16.06 25.0592 16.8304 25.4944 17.6905 26.0417C18.5327 25.5034 19.2942 25.0727 19.9572 24.6914C20.1587 24.5792 20.3514 24.4671 20.5305 24.3639C21.4623 23.8256 22.1521 23.3814 22.6673 22.8611C23.0167 22.5111 23.2944 22.1209 23.5542 21.587Z" fill="url(#paint0_linear_1451_999)"/>
</g>
<path d="M49.6019 12.7101H44.5742V9.89514H58.2655V12.7101H53.2379V24.8255H49.6019V12.7101ZM62.3812 14.8663C62.8016 14.3089 63.3583 13.8923 64.063 13.6052C64.7795 13.3181 65.6026 13.1773 66.5324 13.1773V16.2512C66.1415 16.2231 65.881 16.2062 65.7448 16.2062C64.744 16.2062 63.9564 16.4764 63.3879 17.0169C62.8194 17.5405 62.5351 18.3399 62.5351 19.4039V24.8255H59.0353V13.3462H62.3812V14.8663ZM80.194 13.3519V24.8311H76.8719V23.4631C76.41 23.9585 75.8533 24.3469 75.2138 24.6172C74.5683 24.8705 73.8754 25 73.1293 25C71.5422 25 70.2868 24.5665 69.3571 23.6995C68.4274 22.8325 67.9655 21.5433 67.9655 19.8374V13.3519H71.4653V19.3476C71.4653 21.1942 72.2825 22.1232 73.911 22.1232C74.746 22.1232 75.421 21.8698 75.9303 21.3575C76.4396 20.8339 76.6942 20.057 76.6942 19.0324V13.3575H80.194V13.3519ZM86.8265 25C85.8257 25 84.8427 24.8874 83.8893 24.6566C82.9299 24.4145 82.166 24.1161 81.5975 23.7614L82.7641 21.3744C83.303 21.7009 83.9544 21.9711 84.7183 22.1851C85.4822 22.3821 86.2284 22.4835 86.9627 22.4835C88.4431 22.4835 89.1834 22.1344 89.1834 21.4363C89.1834 21.1098 88.982 20.8733 88.5793 20.7326C88.1767 20.5918 87.5549 20.468 86.714 20.3723C85.725 20.2315 84.9137 20.0683 84.2683 19.8825C83.6228 19.6967 83.0661 19.3702 82.5865 18.9029C82.1246 18.4356 81.8936 17.7657 81.8936 16.8987C81.8936 16.1724 82.1127 15.5306 82.545 14.9789C82.9951 14.4103 83.6346 13.9711 84.4755 13.6559C85.3283 13.3406 86.3291 13.1886 87.4838 13.1886C88.3366 13.1886 89.1834 13.2787 90.0184 13.4645C90.8711 13.6334 91.5758 13.8754 92.1265 14.1907L90.9599 16.5609C89.8999 15.9923 88.7392 15.7051 87.4838 15.7051C86.7377 15.7051 86.1751 15.8065 85.802 16.0035C85.4289 16.2006 85.2394 16.4595 85.2394 16.7692C85.2394 17.1239 85.4408 17.3716 85.8435 17.5179C86.2462 17.6587 86.8916 17.7938 87.774 17.9233C88.7629 18.0809 89.5683 18.2498 90.196 18.4356C90.8237 18.6045 91.3685 18.9254 91.8364 19.3983C92.2983 19.8656 92.5292 20.5243 92.5292 21.3631C92.5292 22.0725 92.3042 22.7087 91.8541 23.2604C91.4041 23.8121 90.7467 24.2512 89.8822 24.5609C89.0235 24.8536 88.0109 25 86.8265 25ZM101.803 24.2738C101.459 24.5158 101.033 24.7016 100.524 24.8311C100.032 24.9437 99.5051 25 98.9544 25C97.5154 25 96.4021 24.651 95.6086 23.9529C94.8328 23.2548 94.442 22.2301 94.442 20.879V16.1668H92.5766V13.6052H94.442V10.8128H97.9418V13.6052H100.95V16.1668H97.9418V20.8396C97.9418 21.3237 98.0661 21.7009 98.3208 21.9712C98.5873 22.2245 98.9662 22.354 99.44 22.354C99.9907 22.354 100.464 22.2132 100.855 21.9261L101.803 24.2738ZM132.762 9.89514L127.622 24.8311H123.719L120.261 14.7199L116.69 24.8311H112.806L107.642 9.89514H111.414L114.961 20.3892L118.662 9.89514H122.026L125.614 20.4792L129.274 9.89514H132.762ZM137.843 13.183C139.714 13.183 141.147 13.6108 142.154 14.4609C143.155 15.2998 143.658 16.5721 143.658 18.278V24.8255H140.384V23.3955C139.726 24.4595 138.5 24.9944 136.706 24.9944C135.776 24.9944 134.971 24.8424 134.284 24.544C133.609 24.2456 133.094 23.8346 132.738 23.3054C132.377 22.7818 132.2 22.1795 132.2 21.5151C132.2 20.4511 132.62 19.6066 133.455 18.9986C134.308 18.3849 135.616 18.0809 137.381 18.0809H140.164C140.164 17.3547 139.933 16.803 139.472 16.4145C139.01 16.0148 138.311 15.8177 137.387 15.8177C136.742 15.8177 136.108 15.9191 135.48 16.1161C134.864 16.3019 134.343 16.5552 133.911 16.8818L132.656 14.5567C133.313 14.1175 134.1 13.7741 135.012 13.532C135.924 13.3012 136.872 13.183 137.843 13.183ZM137.577 22.7593C138.175 22.7593 138.708 22.6298 139.17 22.3765C139.631 22.1063 139.963 21.7178 140.159 21.2055V20.0345H137.76C136.321 20.0345 135.605 20.4849 135.605 21.38C135.605 21.8079 135.776 22.1457 136.12 22.4046C136.475 22.6411 136.961 22.7593 137.577 22.7593ZM146.151 9H149.651V24.8311H146.151V9ZM152.227 9H155.727V24.8311H152.227V9ZM170.129 19.1337C170.129 19.1787 170.105 19.4771 170.064 20.0289H160.932C161.098 20.7382 161.489 21.3012 162.099 21.7122C162.715 22.1232 163.479 22.3315 164.391 22.3315C165.018 22.3315 165.575 22.247 166.049 22.0781C166.54 21.8923 167.002 21.6108 167.417 21.2224L169.282 23.1422C168.145 24.3807 166.487 25 164.302 25C162.94 25 161.738 24.7523 160.69 24.2512C159.641 23.7389 158.836 23.0352 158.267 22.14C157.699 21.2449 157.415 20.2259 157.415 19.0887C157.415 17.9627 157.693 16.955 158.244 16.0598C158.812 15.1478 159.582 14.4441 160.553 13.9486C161.542 13.4363 162.638 13.183 163.852 13.183C165.036 13.183 166.102 13.4251 167.061 13.9092C168.021 14.3934 168.767 15.0915 169.306 15.9979C169.856 16.893 170.129 17.9402 170.129 19.1337ZM163.87 15.6995C163.076 15.6995 162.413 15.9134 161.874 16.3413C161.335 16.7692 161.009 17.3491 160.885 18.0922H166.83C166.712 17.3659 166.38 16.7917 165.841 16.3638C165.309 15.9191 164.651 15.6995 163.87 15.6995ZM179.574 24.2738C179.231 24.5158 178.804 24.7016 178.295 24.8311C177.804 24.9437 177.277 25 176.726 25C175.287 25 174.174 24.651 173.38 23.9529C172.604 23.2548 172.213 22.2301 172.213 20.879V16.1668H170.348V13.6052H172.213V10.8128H175.713V13.6052H178.721V16.1668H175.713V20.8396C175.713 21.3237 175.838 21.7009 176.092 21.9712C176.359 22.2245 176.738 22.354 177.211 22.354C177.762 22.354 178.236 22.2132 178.627 21.9261L179.574 24.2738Z" fill="url(#paint1_linear_1451_999)"/>
<defs>
<linearGradient id="paint0_linear_1451_999" x1="17.5472" y1="0" x2="17.5472" y2="33.9955" gradientUnits="userSpaceOnUse">
<stop stop-color="white"/>
<stop offset="1" stop-color="white"/>
</linearGradient>
<linearGradient id="paint1_linear_1451_999" x1="112.074" y1="9" x2="112.074" y2="25" gradientUnits="userSpaceOnUse">
<stop stop-color="white"/>
<stop offset="1" stop-color="white"/>
</linearGradient>
</defs>
</svg>
