<svg width="140" height="26" viewBox="0 0 140 26" fill="none" xmlns="http://www.w3.org/2000/svg">
<g clip-path="url(#clip0_1451_997)">
<path d="M28.7993 7.52483C23.7576 7.52483 19.8183 11.3521 19.8183 16.4757C19.8183 21.5993 23.6581 25.3938 28.7993 25.3938C33.9406 25.3938 37.8472 21.5337 37.8472 16.4429C37.8472 11.3848 34.0073 7.52483 28.7993 7.52483ZM28.8334 21.7013C25.9623 21.7013 23.8584 19.4715 23.8584 16.4769C23.8584 13.4484 25.9283 11.2198 28.7993 11.2198C31.7044 11.2198 33.807 13.4824 33.807 16.4769C33.807 19.4715 31.7044 21.7013 28.8334 21.7013ZM38.9482 11.4189H41.4527V25.0624H45.4589V7.85742H38.9482V11.4189ZM9.73612 11.2185C11.84 11.2185 13.5092 12.5161 14.1429 14.4461H18.3834C17.6149 10.3203 14.2097 7.52483 9.77014 7.52483C4.72844 7.52483 0.789062 11.3521 0.789062 16.4769C0.789062 21.6018 4.62892 25.395 9.77014 25.395C14.1101 25.395 17.5821 22.5995 18.3506 18.4397H14.1429C13.542 20.3697 11.8727 21.7013 9.76888 21.7013C6.86379 21.7013 4.82796 19.4715 4.82796 16.4769C4.82922 13.4484 6.8323 11.2185 9.73612 11.2185ZM115.068 14.8127L112.13 14.3806C110.728 14.1816 109.726 13.7155 109.726 12.6169C109.726 11.4189 111.029 10.8205 112.797 10.8205C114.734 10.8205 115.97 11.6519 116.237 13.0163H120.109C119.675 9.55562 117.004 7.52609 112.898 7.52609C108.658 7.52609 105.853 9.68916 105.853 12.7505C105.853 15.6782 107.69 17.3764 111.395 17.9081L114.333 18.3402C115.769 18.5392 116.571 19.1061 116.571 20.1707C116.571 21.535 115.168 22.1007 113.232 22.1007C110.861 22.1007 109.526 21.1357 109.325 19.6718H105.386C105.754 23.0329 108.391 25.395 113.198 25.395C117.572 25.395 120.476 23.3982 120.476 19.9703C120.476 16.909 118.373 15.3116 115.068 14.8127ZM43.4558 0.769809C41.9869 0.769809 40.8846 1.83434 40.8846 3.29822C40.8846 4.7621 41.9856 5.82663 43.4558 5.82663C44.9247 5.82663 46.027 4.7621 46.027 3.29822C46.027 1.83434 44.9247 0.769809 43.4558 0.769809ZM102.248 13.7482C102.248 10.0217 99.9777 7.52609 95.1704 7.52609C90.6301 7.52609 88.0928 9.8227 87.5914 13.3501H91.5648C91.7651 11.9858 92.8335 10.8545 95.1036 10.8545C97.1407 10.8545 98.1422 11.7527 98.1422 12.8512C98.1422 14.2824 96.3054 14.6477 94.0353 14.8808C90.9639 15.2134 87.1581 16.2779 87.1581 20.2714C87.1581 23.3668 89.4622 25.3623 93.1345 25.3623C96.0056 25.3623 97.8084 24.1642 98.7104 22.267C98.8439 23.9639 100.113 25.0624 101.883 25.0624H104.219V21.5023H102.249V13.7482H102.248ZM98.3085 18.0744C98.3085 20.371 96.3055 22.0679 93.8677 22.0679C92.3648 22.0679 91.0962 21.4355 91.0962 20.1051C91.0962 18.4082 93.1333 17.9421 95.0028 17.743C96.8056 17.5767 97.8071 17.1774 98.3085 16.4114V18.0744ZM77.0419 7.52483C74.8045 7.52483 72.935 8.45708 71.5996 10.0205V0.603516H67.5935V25.0624H71.5328V22.7998C72.8682 24.43 74.7718 25.395 77.0419 25.395C81.8493 25.395 85.4889 21.6018 85.4889 16.4769C85.4889 11.3521 81.7825 7.52483 77.0419 7.52483ZM76.441 21.7013C73.5699 21.7013 71.4661 19.4715 71.4661 16.4769C71.4661 13.4824 73.6027 11.2198 76.4738 11.2198C79.3788 11.2198 81.4147 13.4496 81.4147 16.4769C81.4147 19.4715 79.3121 21.7013 76.441 21.7013ZM58.0115 7.52483C55.4075 7.52483 53.7042 8.58936 52.7027 10.0873V7.85742H48.7293V25.0612H52.7354V15.711C52.7354 13.0818 54.4047 11.2185 56.8751 11.2185C59.1793 11.2185 60.6142 12.8487 60.6142 15.2121V25.0624H64.6203V14.9135C64.6216 10.5861 62.3855 7.52483 58.0115 7.52483ZM139.573 15.9113C139.573 10.9867 135.968 7.52609 131.126 7.52609C125.985 7.52609 122.212 11.3861 122.212 16.4769C122.212 21.8348 126.252 25.395 131.193 25.395C135.367 25.395 138.638 22.9321 139.472 19.4387H135.299C134.698 20.9694 133.229 21.8348 131.258 21.8348C128.687 21.8348 126.751 20.2374 126.318 17.4419H139.572V15.9113H139.573ZM126.552 14.5797C127.187 12.1836 128.99 11.0195 131.059 11.0195C133.33 11.0195 135.066 12.3171 135.466 14.5797H126.552Z" fill="white"/>
</g>
<defs>
<clipPath id="clip0_1451_997">
<rect width="138.784" height="24.7915" fill="white" transform="translate(0.789062 0.603516)"/>
</clipPath>
</defs>
</svg>
