<svg width="131" height="34" viewBox="0 0 131 34" fill="none" xmlns="http://www.w3.org/2000/svg">
<path fill-rule="evenodd" clip-rule="evenodd" d="M110.776 4.8592V25.7237C110.757 26.0555 110.893 26.3873 111.127 26.6411C111.361 26.8948 111.692 27.0314 112.023 27.0314H112.393C112.744 27.0314 113.075 26.8948 113.309 26.6411C113.543 26.3873 113.679 26.0555 113.679 25.7237V4.8592H116.095V26.2702C116.095 27.8902 114.809 29.1979 113.192 29.2369H111.341C110.542 29.2369 109.782 28.9442 109.217 28.3781C108.652 27.8121 108.34 27.0705 108.34 26.2702V4.8592H110.776ZM127.961 4.62499C129.578 4.66402 130.884 6.18641 130.884 7.82591V9.75817C130.884 10.0314 130.708 10.2656 130.436 10.3437L128.429 10.9097V8.13819C128.429 7.43555 127.844 6.85002 127.143 6.85002C126.441 6.85002 125.857 7.41603 125.857 8.13819V10.4413C125.857 11.8661 126.909 13.6812 126.909 13.6812L129.793 19.2438C130.962 21.4493 130.864 23.0693 130.864 23.0693V26.1531C130.864 26.9533 130.552 27.7341 129.987 28.3196C129.422 28.9051 128.643 29.2174 127.825 29.2369H126.305C124.668 29.1393 123.382 27.7926 123.382 26.1531V22.6985C123.382 22.4252 123.558 22.191 123.83 22.1129L125.837 21.5469V25.7628C125.837 26.4654 126.422 27.0314 127.143 27.0314C127.844 27.0314 128.429 26.4459 128.409 25.7237V22.9717C128.409 21.5664 127.357 19.6927 127.357 19.6927L124.512 14.1302C123.343 11.9246 123.441 10.3047 123.441 10.3047V7.82591C123.441 6.14737 124.785 4.62499 126.48 4.62499H127.961ZM82.3485 4.62499C83.9852 4.70306 85.2712 6.0693 85.2712 7.7088V26.2312C85.2517 27.8512 83.9657 29.1784 82.3485 29.2564H80.4975C78.8414 29.2369 77.497 27.8902 77.4775 26.2312V7.68928C77.4775 6.88905 77.7892 6.10834 78.3543 5.52281C78.9193 4.93727 79.6987 4.62499 80.517 4.60547L82.3485 4.62499ZM54.5835 4.8592L53.999 6.88905C53.9211 7.1623 53.6873 7.33796 53.4145 7.33796H49.5371V15.106H53.5509L52.9664 17.1359C52.8884 17.3896 52.6546 17.5848 52.3818 17.5848H49.5371V26.5435H54.5835L54.0185 28.5538C53.9406 28.8271 53.7068 29.0027 53.434 29.0027H47.1211V4.8592H54.5835ZM97.6631 4.8592C99.3388 4.87872 100.664 6.22545 100.664 7.88446V25.9579C100.664 27.6169 99.3193 28.9832 97.6631 28.9832H92.9869V4.8592H97.6631ZM65.8259 12.6273L68.0471 4.8592H70.5216L67.0729 16.9407L70.5411 29.0222H68.0666L65.8259 21.2346L63.6047 29.0027H61.1302L64.5789 16.9407L61.1108 4.8592H63.5852L65.8259 12.6273ZM81.5302 27.0705C81.8809 27.0705 82.2121 26.9143 82.446 26.6606C82.6798 26.4068 82.8162 26.075 82.7967 25.7237V8.13819C82.8162 7.78687 82.6798 7.45507 82.446 7.20134C82.2121 6.9476 81.8809 6.81098 81.5302 6.79146H81.16C80.4391 6.8305 79.874 7.41603 79.874 8.13819V25.7237C79.874 26.4459 80.4391 27.0314 81.16 27.0705H81.5302ZM96.9812 26.563C97.6631 26.563 98.2671 26.2117 98.2671 25.2748V8.5871C98.2671 7.68928 97.6631 7.33796 96.9812 7.33796H95.403V26.563H96.9812Z" fill="white"/>
<path d="M24.5598 17L34.6916 27.1493H31.1065C30.5025 27.1493 29.8985 26.8955 29.4698 26.4661L20.0589 17L29.5088 7.51435C29.9374 7.08496 30.522 6.83123 31.1455 6.85075H34.6916L24.5598 17ZM5.99134 7.51435C5.56269 7.08496 4.97817 6.83123 4.35467 6.85075H0.789062L10.9208 17L0.789062 27.1493H4.37416C4.97817 27.1493 5.58218 26.8955 6.01083 26.4661L15.4412 16.9805L5.99134 7.51435ZM17.7403 19.3226L8.271 28.7887C7.84234 29.2181 7.60853 29.8037 7.60853 30.4282V34L17.7403 23.8507L27.8721 34V30.4087C27.8721 29.8037 27.6383 29.1986 27.2096 28.7692L17.7403 19.3226ZM17.7403 14.6774L27.2096 5.21125C27.6383 4.78186 27.8721 4.19633 27.8721 3.57176V0L17.7403 10.1493L7.60853 0V3.57176C7.60853 4.17681 7.84234 4.78186 8.271 5.21125L17.7403 14.6774Z" fill="white"/>
</svg>
