<svg width="168" height="22" viewBox="0 0 168 22" fill="none" xmlns="http://www.w3.org/2000/svg">
<path d="M140.555 11.1577C139.359 10.3689 138.041 9.80804 136.794 9.10688C135.985 8.65112 135.123 8.24786 134.421 7.6694C133.225 6.68781 133.472 4.75966 134.72 3.91822C136.513 2.72627 139.482 3.39226 139.799 5.82892C139.799 5.88141 139.851 5.91658 139.904 5.91658H142.611C142.681 5.91658 142.734 5.86395 142.717 5.79388C142.576 4.111 141.925 2.70869 140.731 1.81469C139.588 0.955758 138.287 0.5 136.898 0.5C129.746 0.5 129.095 8.05508 132.944 10.4391C133.384 10.7196 137.162 12.6127 138.499 13.4365C139.834 14.2604 140.256 15.7679 139.675 16.9599C139.148 18.0467 137.777 18.8005 136.407 18.7128C134.912 18.6252 133.753 17.8189 133.348 16.5567C133.278 16.3289 133.243 15.8906 133.243 15.6979C133.243 15.6452 133.19 15.5926 133.137 15.5926H130.203C130.15 15.5926 130.098 15.6452 130.098 15.6979C130.098 17.8189 130.625 18.9933 132.066 20.0627C133.419 21.0793 134.895 21.5 136.425 21.5C140.432 21.5 142.506 19.2387 142.926 16.8898C143.296 14.5934 142.611 12.525 140.555 11.1577Z" fill="white"/>
<path d="M13.1224 0.886719H11.8219H10.3984C10.3456 0.886719 10.3104 0.92177 10.2929 0.956835L7.88528 8.88003C7.85011 8.98527 7.70955 8.98527 7.67438 8.88003L5.26667 0.956835C5.24908 0.904238 5.21391 0.886719 5.16115 0.886719H3.73774H2.43715H0.679736C0.626977 0.886719 0.574219 0.939303 0.574219 0.991886V21.2207C0.574219 21.2731 0.626977 21.3258 0.679736 21.3258H3.61463C3.66739 21.3258 3.72015 21.2731 3.72015 21.2207V5.84746C3.72015 5.72476 3.89588 5.70731 3.93105 5.81242L6.35622 13.7882L6.53194 14.3491C6.54953 14.4017 6.5847 14.4193 6.63746 14.4193H8.88703C8.93965 14.4193 8.97483 14.3842 8.99241 14.3491L9.16814 13.7882L11.5934 5.81242C11.6286 5.68972 11.8043 5.72476 11.8043 5.84746V21.2207C11.8043 21.2731 11.8571 21.3258 11.9097 21.3258H14.8448C14.8974 21.3258 14.9501 21.2731 14.9501 21.2207V0.991886C14.9501 0.939303 14.8974 0.886719 14.8448 0.886719H13.1224Z" fill="white"/>
<path d="M95.615 0.886719C95.5623 0.886719 95.5271 0.92177 95.5095 0.956835L93.1029 8.88003C93.0677 8.98527 92.927 8.98527 92.8918 8.88003L90.4839 0.956835C90.4663 0.904238 90.4311 0.886719 90.3783 0.886719H85.9141C85.8613 0.886719 85.8086 0.939303 85.8086 0.991886V21.2207C85.8086 21.2731 85.8613 21.3258 85.9141 21.3258H88.8497C88.9024 21.3258 88.9552 21.2731 88.9552 21.2207V5.84746C88.9552 5.72476 89.1311 5.70731 89.1662 5.81242L91.5904 13.7882L91.7663 14.3491C91.7839 14.4017 91.8191 14.4193 91.8718 14.4193H94.1215C94.1743 14.4193 94.2095 14.3842 94.2271 14.3491L94.4029 13.7882L96.8285 5.81242C96.8637 5.68972 97.0395 5.72476 97.0395 5.84746V21.2207C97.0395 21.2731 97.0923 21.3258 97.145 21.3258H100.079C100.132 21.3258 100.185 21.2731 100.185 21.2207V0.991886C100.185 0.939303 100.132 0.886719 100.079 0.886719H95.615Z" fill="white"/>
<path d="M57.7608 0.886719H52.295H49.3601H43.8946C43.8418 0.886719 43.7891 0.939303 43.7891 0.991886V3.51605C43.7891 3.56867 43.8418 3.62129 43.8946 3.62129H49.2548V21.2207C49.2548 21.2731 49.3074 21.3258 49.3601 21.3258H52.295C52.3478 21.3258 52.4006 21.2731 52.4006 21.2207V3.62129H57.7608C57.8135 3.62129 57.8661 3.56867 57.8661 3.51605V0.991886C57.8661 0.939303 57.8311 0.886719 57.7608 0.886719Z" fill="white"/>
<path d="M75.0715 21.3236H77.7419C77.8123 21.3236 77.865 21.2535 77.8475 21.1834L72.3294 0.884568C72.3118 0.831984 72.2766 0.814453 72.2239 0.814453H71.2048H69.4122H68.3929C68.3401 0.814453 68.305 0.849517 68.2874 0.884568L62.769 21.1834C62.7514 21.2535 62.8042 21.3236 62.8746 21.3236H65.5458C65.5986 21.3236 65.6337 21.2886 65.6513 21.2535L67.2506 15.3461C67.268 15.2936 67.3032 15.276 67.356 15.276H73.2615C73.3142 15.276 73.3494 15.3111 73.367 15.3461L74.966 21.2535C74.9836 21.2886 75.0363 21.3236 75.0715 21.3236ZM68.0589 12.3838L70.2031 4.47801C70.2381 4.37289 70.3788 4.37289 70.414 4.47801L72.558 12.3838C72.5756 12.4538 72.5229 12.5239 72.4525 12.5239H68.1644C68.0941 12.5239 68.0414 12.4538 68.0589 12.3838Z" fill="white"/>
<path d="M120.626 21.3236H123.296C123.367 21.3236 123.42 21.2535 123.402 21.1834L117.884 0.884568C117.866 0.831984 117.831 0.814453 117.778 0.814453H116.76H114.967H113.947C113.895 0.814453 113.859 0.849517 113.842 0.884568L108.324 21.1834C108.306 21.2535 108.359 21.3236 108.429 21.3236H111.101C111.154 21.3236 111.189 21.2886 111.207 21.2535L112.806 15.3461C112.823 15.2936 112.858 15.276 112.911 15.276H118.816C118.869 15.276 118.904 15.3111 118.922 15.3461L120.521 21.2535C120.538 21.2886 120.573 21.3236 120.626 21.3236ZM113.613 12.3838L115.757 4.47801C115.793 4.37289 115.933 4.37289 115.968 4.47801L118.113 12.3838C118.13 12.4538 118.077 12.5239 118.007 12.5239H113.719C113.648 12.5239 113.596 12.4538 113.613 12.3838Z" fill="white"/>
<path d="M26.8645 18.3264V12.0509C26.8645 11.9984 26.9173 11.9458 26.9701 11.9458H34.7906C34.8433 11.9458 34.8961 11.8931 34.8961 11.8405V9.31633C34.8961 9.26384 34.8433 9.21122 34.7906 9.21122H26.9701C26.9173 9.21122 26.8645 9.15859 26.8645 9.10597V3.74213C26.8645 3.6895 26.9173 3.63688 26.9701 3.63688H35.8627C35.9154 3.63688 35.9682 3.58425 35.9682 3.53176V1.00752C35.9682 0.954941 35.9154 0.902344 35.8627 0.902344H26.8645H23.8243C23.7715 0.902344 23.7188 0.954941 23.7188 1.00752V3.63688V9.22867V11.9634V18.4491V21.2187C23.7188 21.2713 23.7715 21.3239 23.8243 21.3239H26.8645H36.2317C36.2845 21.3239 36.3372 21.2713 36.3372 21.2187V18.5543C36.3372 18.5017 36.2845 18.4491 36.2317 18.4491H26.9525C26.8997 18.4316 26.8645 18.3964 26.8645 18.3264Z" fill="white"/>
<path d="M167.374 21.1486L157.215 10.6836C157.18 10.6486 157.18 10.5785 157.215 10.5435L166.355 1.07764C166.425 1.00752 166.373 0.902344 166.285 0.902344H162.541C162.506 0.902344 162.489 0.919876 162.471 0.937408L154.721 8.96582C154.651 9.0359 154.545 8.98327 154.545 8.89561V1.00752C154.545 0.954941 154.492 0.902344 154.44 0.902344H151.504C151.451 0.902344 151.398 0.954941 151.398 1.00752V21.2362C151.398 21.2889 151.451 21.3415 151.504 21.3415H154.44C154.492 21.3415 154.545 21.2889 154.545 21.2362V12.3314C154.545 12.2438 154.668 12.1912 154.721 12.2612L163.507 21.3063C163.525 21.3239 163.56 21.3415 163.578 21.3415H167.321C167.391 21.3239 167.444 21.2012 167.374 21.1486Z" fill="white"/>
</svg>
