<svg width="139" height="34" viewBox="0 0 139 34" fill="none" xmlns="http://www.w3.org/2000/svg">
<path d="M24.3149 0.5H11.2792V18.0728H28.8887V5.04672C28.8887 2.55488 26.8323 0.5 24.3386 0.5C24.3268 0.5 24.3149 0.5 24.3149 0.5Z" fill="white"/>
<path d="M7.21367 0.5H4.96816C2.47447 0.5 0.41806 2.55488 0.41806 5.04672V7.29055H7.21367V0.5Z" fill="white"/>
<path d="M0.40625 11.3531H7.20186V18.1436H0.40625V11.3531Z" fill="white"/>
<path d="M22.1404 28.9495H24.3859C26.8795 28.9495 28.936 26.8946 28.936 24.4027V22.218H22.1404V28.9495Z" fill="white"/>
<path d="M11.2792 22.2061H18.0748V28.9967H11.2792V22.2061Z" fill="white"/>
<path d="M0.40625 22.2061V24.45C0.40625 26.9418 2.46266 28.9967 4.95635 28.9967H7.20186V22.2061H0.40625Z" fill="white"/>
<path d="M46.2607 1.31836H43.6016V26.1895H57.701V23.8158H46.2607V1.31836Z" fill="white"/>
<path d="M66.2457 7.90816C61.0692 7.90816 57.4173 11.7581 57.4173 17.285V17.9109C57.5946 22.7411 61.6011 26.6383 66.4466 26.6619H66.7894C69.2121 26.6619 71.564 25.788 73.4077 24.2173V24.1464L72.2022 22.186L72.0722 22.2569C70.6422 23.5914 68.763 24.3354 66.8012 24.359C66.7539 24.359 66.7066 24.359 66.6593 24.359C63.0429 24.359 60.0765 21.3948 60.0765 17.781C60.0765 17.7102 60.0765 17.6393 60.0765 17.5685H73.5259V16.1631C73.6677 11.1322 70.7367 7.90816 66.2457 7.90816ZM60.2301 15.3364C60.5847 12.384 63.1256 10.1284 66.1157 10.1402C68.3612 10.1402 70.8194 11.4865 71.0204 15.3364H60.2301Z" fill="white"/>
<path d="M89.1498 10.0103V10.9432C88.0153 9.05368 85.9589 7.88453 83.7488 7.87272H83.4179C78.6551 7.87272 75.3577 11.6518 75.3577 17.1787C75.3577 22.7056 78.5014 26.5792 83.2052 26.5792C85.6398 26.6973 87.9444 25.4455 89.1735 23.3434V26.0714H91.6908V1.31836H89.138V10.0103H89.1498ZM83.6897 24.2291C80.3924 24.2291 78.2178 21.3712 78.2178 17.226C78.2178 13.0808 80.5224 10.2937 83.7606 10.2937C86.4316 10.2937 89.1617 12.4667 89.1617 17.226C89.1617 22.3868 86.3016 24.2291 83.6425 24.2291H83.6897Z" fill="white"/>
<path d="M107.114 10.4945C106.618 9.65599 105.081 7.8373 101.394 7.8373C96.7018 7.8373 93.6054 11.4156 93.6054 16.8717C93.6054 22.3277 96.8437 26.036 101.606 26.036C103.84 26.2013 105.991 25.0912 107.149 23.178V25.6345C107.149 29.0711 104.975 31.0315 101.11 31.0315C99.4437 31.0433 97.801 30.6536 96.3118 29.8977L96.1818 29.8269L95.1891 31.9999L95.3309 32.0707C97.1273 32.9801 99.1246 33.4761 101.146 33.4997C105.282 33.4997 109.738 31.3976 109.738 25.5754V8.42778H107.114V10.4945ZM101.926 23.8158C98.4864 23.8158 96.2055 21.1586 96.2055 17.0252C96.2055 12.8918 98.1673 10.4354 101.536 10.4354C105.247 10.4354 107.008 12.6084 107.008 17.0252C107.008 21.442 105.282 23.8158 101.926 23.8158Z" fill="white"/>
<path d="M120.303 7.90816C115.103 7.90816 111.534 11.7581 111.534 17.2142V17.8401C111.688 22.7293 115.753 26.6619 120.646 26.6619H121.001C123.412 26.6501 125.752 25.7762 127.583 24.2055L126.366 22.1152H126.224C124.794 23.4497 122.927 24.1937 120.977 24.2173C120.93 24.2173 120.882 24.2173 120.835 24.2173C117.219 24.2173 114.24 21.2413 114.24 17.6275C114.24 17.5567 114.24 17.4976 114.24 17.4267H127.808V16.0214C127.796 11.1322 124.853 7.90816 120.303 7.90816ZM114.335 15.3364C114.701 12.3722 117.242 10.1284 120.232 10.1402C122.466 10.1402 124.924 11.4865 125.125 15.3364H114.335Z" fill="white"/>
<path d="M138.74 8.25066C138.385 8.25066 138.114 8.25066 137.747 8.10894C135.218 8.1798 132.996 9.84496 132.204 12.2423V8.25066H129.616V26.1187H132.275V18.6195C132.287 17.474 132.476 16.3285 132.831 15.2302C133.67 12.5021 135.561 10.7543 137.806 10.7543C138.09 10.7307 138.374 10.7307 138.645 10.7543H138.787V8.25066H138.74Z" fill="white"/>
</svg>
