<svg width="171" height="34" viewBox="0 0 171 34" fill="none" xmlns="http://www.w3.org/2000/svg">
<g clip-path="url(#clip0_1451_986)">
<path d="M10.4478 14.2864L17.0821 7.68565L23.719 14.2918L27.5771 10.4489L17.0821 0L6.58706 10.4463L10.4478 14.2864Z" fill="white"/>
<path d="M0 17.0005L3.85935 13.1591L7.7187 17.0005L3.85935 20.842L0 17.0005Z" fill="white"/>
<path d="M10.4478 19.7136L17.0821 26.3171L23.719 19.7109L27.5798 23.5484L17.0821 34L6.58167 23.5511L10.4478 19.7136Z" fill="white"/>
<path d="M26.4389 17.0015L30.2983 13.1601L34.1576 17.0015L30.2983 20.8429L26.4389 17.0015Z" fill="white"/>
<path d="M20.9968 16.9986L17.0821 13.0994L14.1872 15.9809L13.8526 16.3112L13.162 16.9986L13.1674 17.0067L17.0821 20.9005L20.9995 16.9986H20.9968Z" fill="white"/>
<path d="M40.1797 8.23828H48.5757C50.6585 8.23828 52.2341 8.77536 53.3025 9.84953C53.705 10.2463 54.0223 10.7204 54.2352 11.2429C54.4481 11.7655 54.5521 12.3256 54.5409 12.8894V12.9404C54.5481 13.4023 54.4835 13.8625 54.3493 14.3046C54.2298 14.6853 54.0562 15.047 53.834 15.3788C53.6268 15.6917 53.3761 15.9738 53.0894 16.2166C52.8092 16.4566 52.5023 16.6639 52.1748 16.8343C53.1194 17.1618 53.969 17.7151 54.6488 18.4455C55.2495 19.1258 55.5499 20.0657 55.5499 21.2652V21.3162C55.567 22.0654 55.4032 22.8076 55.0723 23.4807C54.7518 24.1008 54.2818 24.6323 53.7045 25.0275C53.0518 25.463 52.325 25.7769 51.5596 25.9539C50.6502 26.1686 49.718 26.2723 48.7834 26.2628H40.1797V8.23828ZM47.7339 15.5265C48.4603 15.5614 49.1832 15.4059 49.8302 15.0753C50.0826 14.9286 50.2886 14.7145 50.4249 14.4573C50.5613 14.2001 50.6226 13.91 50.6019 13.6198V13.5688C50.6152 13.3015 50.5607 13.0351 50.4432 12.7944C50.3258 12.5536 50.1493 12.3461 49.9301 12.1912C49.4822 11.8743 48.8356 11.7159 47.9902 11.7159H44.062V15.5265H47.7339ZM48.7942 22.7905C49.5179 22.8309 50.2383 22.6661 50.8716 22.3152C51.1184 22.1574 51.3181 21.9367 51.45 21.676C51.5819 21.4153 51.6412 21.1241 51.6217 20.8329V20.7818C51.6314 20.505 51.5728 20.23 51.451 19.9809C51.3291 19.7319 51.1478 19.5163 50.9229 19.3532C50.4589 18.9951 49.7088 18.8161 48.6728 18.8161H44.062V22.7905H48.7942Z" fill="white"/>
<path d="M60.5508 8.23828H64.5356V26.2681H60.5508V8.23828Z" fill="white"/>
<path d="M70.5664 8.23828H74.241L82.7341 19.3344V8.23828H86.6677V26.2681H83.2764L74.5054 14.8068V26.2681H70.5664V8.23828Z" fill="white"/>
<path d="M98.7334 8.10938H102.403L110.165 26.2681H106.004L104.348 22.2239H96.6884L95.0319 26.2681H90.9688L98.7334 8.10938ZM102.926 18.7221L100.514 12.8733L98.1129 18.7221H102.926Z" fill="white"/>
<path d="M114.473 8.23828H118.147L126.635 19.3344V8.23828H130.569V26.2681H127.177L118.406 14.8068V26.2681H114.473V8.23828Z" fill="white"/>
<path d="M144.913 26.5858C143.643 26.5966 142.384 26.3518 141.212 25.8661C140.108 25.4124 139.106 24.7434 138.266 23.8985C137.426 23.0535 136.764 22.0498 136.32 20.9464C135.851 19.7922 135.614 18.5579 135.621 17.313V17.262C135.601 14.8082 136.549 12.4444 138.263 10.6801C139.106 9.81825 140.115 9.135 141.23 8.67138C142.443 8.17125 143.746 7.92183 145.059 7.93826C145.835 7.93249 146.611 8.00175 147.374 8.14504C148.027 8.26794 148.665 8.45783 149.278 8.71166C149.835 8.94493 150.365 9.23851 150.857 9.58711C151.337 9.92709 151.788 10.3061 152.206 10.7203L149.672 13.6313C149.025 13.0369 148.299 12.5336 147.514 12.1356C146.743 11.7686 145.897 11.5848 145.043 11.5985C144.332 11.5909 143.627 11.734 142.976 12.0183C142.325 12.3026 141.742 12.7215 141.266 13.2473C140.794 13.7717 140.424 14.3792 140.176 15.0385C139.916 15.7352 139.785 16.4731 139.79 17.2164V17.2674C139.787 18.0095 139.918 18.7462 140.176 19.4426C140.421 20.1042 140.787 20.7151 141.255 21.2445C141.727 21.7768 142.309 22.2019 142.96 22.491C143.612 22.7801 144.318 22.9264 145.032 22.9202C145.94 22.9487 146.842 22.7541 147.657 22.3536C148.433 21.9326 149.15 21.4126 149.791 20.8068L152.327 23.3579C151.879 23.8417 151.395 24.2905 150.878 24.7006C150.371 25.1001 149.82 25.4415 149.235 25.7184C148.613 26.0101 147.957 26.2256 147.282 26.3602C146.502 26.5158 145.708 26.5914 144.913 26.5858Z" fill="white"/>
<path d="M157.027 8.23828H170.66V11.7669H160.947V15.4244H169.5V18.9531H160.961V22.7395H170.795V26.2681H157.035L157.027 8.23828Z" fill="white"/>
</g>
<defs>
<clipPath id="clip0_1451_986">
<rect width="170.791" height="34" fill="white"/>
</clipPath>
</defs>
</svg>
