<svg width="178" height="38" viewBox="0 0 178 38" fill="none" xmlns="http://www.w3.org/2000/svg">
<path d="M15.0009 17.8C15.8009 19.2 14.0009 19.6 13.2009 19.7C12.0009 19.8 11.7009 19.1 11.9009 18.2C12.0009 17.9 12.2009 17.6 12.4009 17.4C12.6009 17.2 13.0009 17 13.3009 17C13.6009 17 14.0009 17 14.2009 17.2C14.6009 17.3 14.8009 17.5 15.0009 17.8Z" fill="#EB1A6B"/>
<path d="M19.8014 15.3008C18.9014 22.3008 31.1014 20.8008 30.9014 26.3008C32.1014 24.7008 32.6014 20.5008 29.1014 18.3008C25.9014 16.3008 21.8014 17.4008 19.8014 15.3008Z" fill="#EB1A6B"/>
<path d="M26.8992 12.6004C26.7992 12.5004 26.6992 12.5004 26.6992 12.4004C26.6992 12.5004 26.7992 12.6004 26.8992 12.6004Z" fill="#EB1A6B"/>
<path d="M29.7016 17.7009C29.6016 17.5009 29.5016 17.3009 29.3016 17.1009C28.9016 16.5009 28.3016 16.1009 27.6016 16.0009C27.2016 15.9009 26.7016 15.8009 26.2016 15.8009C25.7016 15.8009 25.3016 15.7009 24.8016 15.7009C23.8016 15.6009 22.9016 15.5009 21.9016 15.3009C21.7016 15.2009 21.4016 15.2009 21.2016 15.1009C21.1016 15.1009 21.0016 15.0009 20.8016 15.0009C20.7016 14.9009 20.6016 14.9009 20.4016 14.8009C19.9016 14.6009 19.5016 14.2009 19.2016 13.9009C18.5016 13.2009 17.9016 12.4009 17.3016 11.7009C16.7016 10.9009 16.2016 10.2009 15.5016 9.50091C14.9016 8.80091 14.1016 8.20091 13.3016 7.80091C12.5016 7.40091 11.5016 7.10091 10.6016 7.00091C11.6016 6.90091 12.6016 7.00091 13.5016 7.40091C14.4016 7.80091 15.3016 8.30091 16.0016 9.00091C16.5016 9.40091 16.9016 9.90091 17.3016 10.4009C20.4016 9.80091 22.8016 10.3009 24.7016 11.4009C25.3016 11.7009 25.9016 12.1009 26.4016 12.6009C26.5016 12.7009 26.6016 12.7009 26.6016 12.8009C27.0016 13.2009 27.4016 13.6009 27.7016 14.0009C29.1016 15.3009 29.7016 16.8009 29.7016 17.7009Z" fill="#EB1A6B"/>
<path d="M10.9008 7.80078C11.7008 7.90078 12.5008 8.20078 13.0008 8.80078C13.5008 9.40078 13.7008 10.2008 13.9008 10.9008C14.0008 11.5008 14.1008 12.1008 14.3008 12.6008C14.4008 12.9008 14.6008 13.1008 14.7008 13.3008C14.8008 13.5008 15.0008 13.7008 15.1008 13.9008V14.0008V14.1008C14.8008 14.4008 14.1008 14.1008 13.8008 13.9008C13.3008 13.7008 12.9008 13.3008 12.5008 12.9008C11.4008 11.7008 10.8008 9.90078 10.8008 8.30078C10.8008 8.20078 10.9008 8.00078 10.9008 7.80078Z" fill="#EB1A6B"/>
<path d="M23.9004 21.8008C22.2004 26.5008 29.9004 29.7008 27.0004 34.5008C29.9004 33.3008 31.3004 29.6008 30.1004 26.7008C29.1004 24.1008 25.9004 23.1008 23.9004 21.8008Z" fill="#EB1A6B"/>
<path d="M13.8008 27.8992C14.3008 27.5992 14.8008 27.2992 15.3008 26.9992C15.8008 26.7992 16.4008 26.5992 17.0008 26.4992C18.1008 26.2992 19.3008 26.1992 20.2008 25.7992C20.7008 25.5992 21.1008 25.3992 21.5008 24.9992C21.9008 24.6992 22.1008 24.2992 22.3008 23.7992C22.5008 23.2992 22.5008 22.7992 22.5008 22.2992C22.5008 21.6992 22.3008 21.1992 22.1008 20.6992C22.5008 21.0992 22.8008 21.6992 23.0008 22.2992C23.2008 22.8992 23.2008 23.4992 23.1008 24.0992C23.0008 24.6992 22.6008 25.2992 22.2008 25.7992C21.8008 26.1992 21.2008 26.5992 20.6008 26.7992C20.0008 26.9992 19.4008 27.0992 18.8008 27.1992C18.2008 27.1992 17.7008 27.2992 17.1008 27.2992C16.0008 27.2992 14.9008 27.4992 13.8008 27.8992Z" fill="#EB1A6B"/>
<path d="M24.5984 36.1993C24.3984 36.2993 24.2984 36.4993 24.0984 36.5993C23.8984 36.6993 23.6984 36.7993 23.4984 36.8993C23.0984 37.0993 22.5984 37.1993 22.0984 37.1993C20.7984 37.1993 19.8984 36.1993 19.3984 35.0993C18.9984 34.3993 18.7984 33.5993 18.3984 32.8993C17.7984 31.8993 16.6984 31.0993 15.4984 31.1993C14.9984 31.2993 14.4984 31.4993 14.2984 31.8993C13.5984 32.9993 14.5984 34.5993 15.9984 34.3993C16.0984 34.3993 16.1984 34.3993 16.2984 34.2993C16.3984 34.2993 16.4984 34.1993 16.5984 34.0993C16.7984 33.8993 16.8984 33.6993 16.9984 33.4993C17.0984 33.2993 17.0984 32.9993 17.0984 32.6993C16.9984 32.3993 16.8984 32.1993 16.6984 32.0993C16.9984 32.1993 17.1984 32.3993 17.2984 32.6993C17.1984 33.1993 17.1984 33.4993 17.1984 33.7993C17.0984 34.0993 16.9984 34.3993 16.7984 34.5993C16.6984 34.6993 16.5984 34.7993 16.3984 34.8993C16.2984 34.9993 16.0984 35.0993 15.9984 35.0993C15.6984 35.1993 15.3984 35.1993 15.0984 35.1993C14.6984 35.0993 14.1984 34.9993 13.8984 34.6993C13.4984 34.3993 13.1984 33.8993 12.7984 33.5993C12.3984 33.0993 11.8984 32.7993 11.2984 32.4993C10.8984 32.2993 10.4984 32.1993 10.0984 32.0993C9.89844 32.0993 9.69844 31.9993 9.49844 31.9993C9.39844 31.9993 8.89844 31.8993 8.89844 31.8993C9.59844 31.2993 10.2984 30.7993 10.9984 30.2993C11.7984 29.7993 12.5984 29.4993 13.4984 29.1993C14.3984 28.8993 15.2984 28.8993 16.2984 28.9993C16.7984 29.0993 17.1984 29.1993 17.6984 29.3993C18.1984 29.5993 18.5984 29.8993 18.9984 30.1993C19.3984 30.5993 19.6984 30.9993 19.8984 31.3993C20.0984 31.7993 20.1984 32.2993 20.2984 32.7993C20.5984 34.1993 20.4984 36.3993 22.2984 36.6993C22.3984 36.6993 22.4984 36.6993 22.5984 36.6993H22.8984C23.0984 36.6993 23.2984 36.6993 23.4984 36.5993C23.7984 36.5993 24.1984 36.3993 24.5984 36.1993Z" fill="#EB1A6B"/>
<path d="M12.3 14.9C12.2 15.2 12.1 15.4 12 15.6C11.7 16 11.3 16.3 10.9 16.5C10.5 16.7 10.1 16.8 9.6 16.8C9.5 16.8 9.4 16.8 9.3 16.8C9 16.8 8.8 16.9 8.5 17.1C8.3 17.3 8.1 17.5 8.1 17.8C8.1 17.9 8 18.1 8 18.2C8 18.6 7.9 18.9 7.9 19.4C7.8 20.2 7.6 20.9 7.3 21.6C6.9 22.5 6.4 23.3 6.5 24.3C6.6 25 6.9 25.5 7.4 25.9C8.2 26.8 10.1 27.2 9.7 29.3C9.4 30.6 7.3 31.9 4.4 32.4C4.7 32.4 4 31.2 4 31.1C3.7 30.6 3.3 30.1 3.1 29.6C2.6 28.6 2.4 27.3 2.6 26.2C2.8 25 3.7 24.1 4.4 23.1C5.3 22 6.2 20.6 6.4 19.1C6.4 18.8 6.5 18.3 6.6 17.9C6.7 17.4 6.8 17 7 16.5C7.1 16.2 7.3 16 7.6 15.7C7.7 15.6 7.8 15.4 7.8 15.3C7.8 15.1 7.8 15 7.7 14.8L3 6.3L9.8 14.7C9.9 14.8 10 14.9 10.1 14.9C10.2 15 10.3 15 10.5 15C10.6 15 10.7 15 10.9 14.9C11 14.8 11.1 14.8 11.2 14.7C11.3 14.6 11.3 14.5 11.3 14.3C11.3 14.2 11.3 14 11.2 13.9C10.8 13.3 10.3 12.8 9.8 12.2L8.1 10.1L4.7 5.9L0 0L5.1 5.5L8.7 9.5L10.5 11.5C11.1 12.2 11.7 12.8 12.3 13.6L12.4 13.7V13.9C12.4 14.3 12.4 14.6 12.3 14.9Z" fill="#EB1A6B"/>
<path d="M13.9 34.5992C13.6 34.2992 13.3 33.9992 13 33.6992C13.3 34.0992 13.5 34.3992 13.9 34.5992Z" fill="#EB1A6B"/>
<path fill-rule="evenodd" clip-rule="evenodd" d="M102 11.9995C98.7 12.7995 97.2 15.3995 98.1 18.4995C98.5 19.7995 99.7 21.1995 101.5 22.1995C104.6 23.9995 105.6 24.6995 106.1 25.7995C106.5 26.6995 106.6 26.9995 106.4 27.8995C105.9 29.8995 104.5 30.8995 102.5 30.8995C100.5 30.8995 99.1 29.7995 98.7 27.8995C98.6 27.0995 98.4 26.8995 98.1 26.8995C97.7 26.8995 97.6 27.0995 97.6 28.9995V31.0995L98.9 31.4995C101 32.1995 103.9 32.0995 105.6 31.2995C109 29.6995 110.3 26.5995 108.8 23.6995C108.2 22.5995 106.8 21.3995 104.4 19.8995C101.8 18.2995 100.7 17.1995 100.5 16.0995C100.2 14.2995 101.8 12.8995 104 12.8995C105.7 12.8995 106.4 13.2995 107 14.5995C107.4 15.3995 107.6 15.6995 108.1 15.6995C108.6 15.6995 108.7 15.5995 108.5 15.0995C108.4 14.7995 108.3 13.9995 108.3 13.3995C108.3 12.5995 108.2 12.1995 107.9 12.0995C107.2 11.7995 102.9 11.6995 102 11.9995ZM36 12.6995C36 13.0995 36.2 13.1995 36.6 13.1995C37.8 13.1995 37.9 13.4995 38 20.7995C38.1 27.0995 38.2 27.5995 38.7 28.5995C39.4 29.8995 40.4 30.7995 41.9 31.4995C42.9 31.9995 43.6 32.0995 45.7 32.0995C47.9 32.0995 48.4 31.9995 49.6 31.3995C50.4 30.9995 51.4 30.2995 51.8 29.7995C53.2 28.0995 53.4 27.1995 53.5 20.1995C53.7 13.3995 53.7 13.2995 54.8 13.2995C55.1 13.2995 55.2 13.0995 55.2 12.7995C55.2 12.2995 55 12.2995 52.2 12.2995C49.4 12.2995 49.2 12.2995 49.2 12.7995C49.2 13.1995 49.4 13.2995 50 13.3995C51.3 13.4995 51.4 13.9995 51.4 20.1995C51.4 26.4995 51.2 27.6995 49.8 28.9995C48.6 30.1995 47.6 30.5995 45.9 30.5995C43.5 30.5995 41.7 29.4995 41.2 27.4995C41 26.7995 40.9 24.3995 41 20.0995L41.1 13.6995L42 13.3995C42.5 13.1995 42.9 12.8995 43 12.6995C43.1 12.2995 42.7 12.2995 39.6 12.2995C36.2 12.1995 36 12.1995 36 12.6995ZM59.3 12.6995C59.3 13.0995 59.5 13.1995 60 13.1995C61.3 13.1995 62 13.6995 62.3 14.7995C62.5 15.3995 62.5 18.2995 62.5 22.3995C62.4 29.7995 62.3 30.2995 60.8 30.5995C60.3 30.6995 60.1 30.8995 60.1 31.1995C60.1 31.5995 60.3 31.6995 63.6 31.6995C66.8 31.6995 67.1 31.6995 67.1 31.2995C67.1 30.9995 66.8 30.7995 66 30.5995C65 30.2995 64.9 30.1995 64.6 29.3995C64.2 28.1995 64.2 16.8995 64.5 16.9995C64.6 16.9995 65.6 17.9995 66.7 19.2995C67.8 20.5995 70.7 23.8995 73.3 26.5995C77.3 30.8995 78 31.6995 78.6 31.6995H79.3L79.4 22.8995C79.5 16.5995 79.6 13.9995 79.8 13.7995C80 13.5995 80.5 13.3995 80.9 13.2995C81.4 13.1995 81.7 12.9995 81.7 12.7995C81.7 12.4995 81.1 12.3995 78.3 12.3995C75 12.2995 74.9 12.2995 74.9 12.7995C74.9 13.1995 75.1 13.2995 75.5 13.2995C75.8 13.2995 76.4 13.5995 76.8 13.8995L77.5 14.4995L77.6 20.4995C77.6 23.8995 77.6 26.4995 77.5 26.4995C77.4 26.4995 76.6 25.6995 75.8 24.7995C75 23.8995 72.7 21.2995 70.7 19.0995C68.7 16.8995 66.5 14.4995 65.8 13.6995L64.6 12.2995H62C59.4 12.1995 59.3 12.1995 59.3 12.6995ZM85.5 12.6995C85.5 13.0995 85.7 13.1995 86.2 13.1995C86.6 13.1995 87.1 13.3995 87.4 13.5995C87.9 13.8995 87.9 14.3995 88 21.2995C88.1 29.8995 88 30.3995 86.5 30.5995C85.8 30.6995 85.5 30.8995 85.5 31.1995C85.5 31.5995 85.8 31.6995 89.3 31.6995C92.9 31.6995 93.1 31.6995 93.1 31.1995C93.1 30.7995 92.9 30.6995 92.5 30.6995C92.2 30.6995 91.7 30.4995 91.4 30.2995C90.9 29.9995 90.9 29.4995 90.8 22.0995C90.7 14.4995 90.7 14.1995 91.2 13.6995C91.5 13.3995 92 13.1995 92.3 13.1995C92.8 13.1995 92.9 13.0995 92.9 12.6995C92.9 12.1995 92.7 12.1995 89.1 12.1995C85.7 12.1995 85.5 12.1995 85.5 12.6995ZM111.8 12.6995C111.9 12.9995 112.1 13.1995 112.5 13.1995C112.8 13.1995 113.3 13.4995 113.6 13.7995C113.9 14.0995 115.6 18.1995 117.5 23.0995L120.8 31.7995L121.7 31.8995L122.6 31.9995L124.9 25.7995C126.2 22.3995 127.4 19.2995 127.5 18.9995C127.8 18.3995 127.8 18.4995 128.6 20.4995C129 21.6995 130.2 24.6995 131.2 27.2995L133 31.9995H133.8C134.2 31.9995 134.6 31.8995 134.7 31.6995C134.8 31.4995 135.9 28.5995 137.3 25.1995C138.6 21.7995 140.1 17.9995 140.6 16.7995C141.7 13.9995 141.9 13.6995 142.7 13.3995C143.1 13.2995 143.4 12.9995 143.4 12.7995C143.4 12.4995 142.9 12.3995 140.4 12.3995C137.6 12.3995 137.4 12.3995 137.4 12.8995C137.4 13.2995 137.6 13.3995 138 13.3995C139 13.3995 139.4 13.6995 139.4 14.2995C139.4 14.7995 134.6 27.6995 134.3 27.9995C134.1 28.1995 129.8 16.1995 129.7 14.9995C129.5 13.8995 130 13.3995 131.1 13.3995C131.5 13.3995 131.7 13.2995 131.7 12.8995C131.7 12.3995 131.5 12.3995 127.8 12.3995C124.1 12.3995 123.9 12.3995 123.9 12.8995C123.9 13.1995 124.1 13.3995 124.3 13.3995C125.1 13.3995 126.1 14.1995 126.4 14.8995C126.8 15.9995 126.5 17.0995 124.2 23.0995L122.3 28.1995L121.9 27.1995C121.7 26.6995 120.5 23.4995 119.3 20.1995C116.9 13.6995 116.9 13.3995 118.5 13.3995C119.1 13.3995 119.2 13.2995 119.2 12.8995C119.2 12.3995 119 12.3995 115.5 12.3995C111.7 12.1995 111.6 12.1995 111.8 12.6995ZM162.4 12.8995C162.4 12.8995 162.4 13.1995 162.4 13.2995C162.4 13.3995 162.7 13.3995 162.7 13.3995C162.9 13.3995 163 13.4995 163.2 13.4995C164 13.6995 164.5 13.7995 164.7 14.2995C164.8 14.5995 164.9 15.7995 164.9 22.0995C164.9 28.6995 164.9 29.4995 164.7 29.8995C164.5 30.3995 164.1 30.6995 163.1 30.9995C163.1 30.9995 162.7 31.0995 162.6 31.1995C162.5 31.2995 162.5 31.4995 162.5 31.4995C162.5 31.4995 162.5 31.6995 162.6 31.7995C162.7 31.8995 163 31.8995 163 31.8995H165.5H169.7C169.7 31.8995 169.9 31.8995 170 31.7995C170.1 31.6995 170.1 31.4995 170.1 31.4995C170.1 31.4995 170.1 31.2995 170 31.1995C169.9 31.0995 169.5 30.9995 169.5 30.9995C168.6 30.7995 168.1 30.4995 167.9 29.9995C167.7 29.5995 167.7 28.6995 167.7 26.5995V23.5995C167.8 23.6995 167.9 23.6995 168 23.7995C168.5 24.0995 169.1 24.5995 171.3 24.5995C174 24.6995 175.6 23.4995 176.6 22.0995C177.6 20.6995 177.9 18.4995 177.2 16.0995C176.5 13.7995 174.4 12.2995 171.5 12.1995C170 12.0995 167.7 12.1995 166.5 12.2995H166.2C165.1 12.2995 163.7 12.4995 163 12.4995C162.8 12.4995 162.8 12.4995 162.7 12.5995C162.4 12.7995 162.4 12.8995 162.4 12.8995ZM173.5 22.0995C174.6 21.0995 174.6 19.4995 174.6 18.3995C174.5 16.7995 173.8 13.6995 170.2 13.6995C169.3 13.6995 167.6 13.7995 167.5 14.9995C167.4 15.1995 167.4 16.6995 167.4 18.8995V22.4995L167.8 22.6995C168 22.7995 168.3 22.8995 168.7 22.9995C170.2 23.3995 172.4 23.0995 173.5 22.0995ZM150.5 12.4995C150.8 12.3995 151 12.2995 151 12.2995C151 12.2995 151.4 12.0995 151.5 12.2995C151.5 12.3995 151.7 12.6995 152.1 13.6995C152.2 13.8995 152.3 14.0995 152.3 14.2995C152.8 15.6995 153.6 17.6995 154 18.7995C154.4 19.8995 155.2 21.8995 155.8 23.4995C156.4 24.9995 157.1 26.8995 157.5 27.7995C157.8 28.6995 158.3 29.4995 158.4 29.6995C158.5 29.7995 158.5 29.8995 158.6 29.9995C158.9 30.3995 159.2 30.9995 159.9 31.0995C159.9 31.0995 160.4 31.1995 160.5 31.2995C160.6 31.3995 160.6 31.4995 160.6 31.4995V31.7995C160.6 31.7995 160.6 31.8995 160.5 31.8995C160.5 31.9995 160.3 31.8995 160.3 31.8995H156.1H153.1C153.1 31.8995 153 31.8995 152.9 31.8995C152.8 31.8995 152.8 31.6995 152.8 31.6995V31.4995C152.8 31.4995 152.8 31.2995 152.9 31.1995C153 31.0995 153.5 30.9995 153.5 30.9995C154.4 30.8995 154.8 30.1995 154.9 29.7995V29.6995C155.1 29.2995 155 28.9995 154.1 26.8995C153.5 25.4995 153.3 25.0995 153.2 24.9995C153.1 24.9995 151.5 24.9995 149.8 24.9995H146.5L146.3 25.4995C145.7 27.0995 145.2 28.5995 145.2 28.9995C145 29.7995 145.3 30.7995 146.5 30.9995C146.5 30.9995 147 31.0995 147.1 31.1995C147.2 31.2995 147.3 31.4995 147.3 31.4995V31.6995C147.3 31.6995 147.3 31.7995 147.2 31.8995C147.1 31.9995 146.9 31.8995 146.9 31.8995H143.8H140.8C140.8 31.8995 140.7 31.8995 140.6 31.7995C140.5 31.6995 140.5 31.5995 140.5 31.5995V31.3995C140.5 31.3995 140.5 31.2995 140.7 31.0995C140.9 30.8995 141.3 30.8995 141.3 30.8995C142.1 30.7995 142.6 29.8995 142.9 29.3995C142.9 29.3995 142.9 29.2995 143 29.2995C143.1 29.0995 143.6 27.9995 144.1 26.7995C144.6 25.5995 145.1 24.1995 145.3 23.7995C145.9 22.2995 146.5 20.8995 147.4 18.6995C147.9 17.4995 148.6 15.6995 149 14.6995L149.7 12.8995L150.5 12.4995ZM150.3 16.7995C150.5 17.1995 150.7 17.7995 150.8 18.0995C150.9 18.3995 151.3 19.2995 151.6 20.0995C151.9 20.8995 152.3 21.7995 152.5 22.1995C152.7 22.5995 152.8 22.8995 152.8 22.8995C152.8 22.8995 151.6 22.8995 150.1 22.8995C148.4 22.8995 147.4 22.8995 147.4 22.7995C147.4 22.7995 147.5 22.5995 147.5 22.3995C147.6 22.0995 148.2 20.4995 149.4 17.0995C149.6 16.5995 149.8 16.0995 149.8 15.9995C149.9 15.9995 150 16.0995 150.3 16.7995Z" fill="white"/>
</svg>
